# xmcd
#
# Track frame offsets: 
#        150
#        14210
#        27854
#        41737
#        54938
#        72997
#        86572
#        111684
#        123219
#        137757
#        148964
#        163372
#        179893
#        192692
#        206627
#        219898
#        232665
#        243851
#
# Disc length: 3385 seconds
#
# Revision: 1
# Processed by: cddbd v1.5.2PL0 Copyright (c) Steve Scherf et al.
# Submitted via: ExactAudioCopy v0.99pb5
#
DISCID=180d3712
DTITLE=Various Artist - Cafe Continental
DYEAR=2006
DGENRE=
TTITLE0=Dean Martin - That's Amore
TTITLE1=Louis Armstrong - C'est Si Bon
TTITLE2=Edith Piaf - La Vie En Rose
TTITLE3=Frank Sinatra - Begin The Beguine
TTITLE4=Jose Feliciano - California Dreaming
TTITLE5=Nina Simone - Ain't Got No - I Got Life
TTITLE6=Dionne Warwick - Do You Know The Way To San Jose
TTITLE7=Mantovani - Theme From Moulin Rouge
TTITLE8=Steely Dan - Barrytown
TTITLE9=Carnival - Cuban Mambo
TTITLE10=Jo Stafford - You Belong To Me
TTITLE11=Astrud Gilberto - Meu Piano
TTITLE12=Musico Paradiso - Theme From Life Is Beautiful
TTITLE13=Eddie Fisher - Lady Of Spain
TTITLE14=Marlene Dietrich - You Do Something To Me
TTITLE15=Les and Mary Ford - Vaya Con Dios
TTITLE16=Miles Davis and Charlie Parker - Barbados
TTITLE17=Anton Karas - Harry Lime Theme
EXTD=
EXTT0=
EXTT1=
EXTT2=
EXTT3=
EXTT4=
EXTT5=
EXTT6=
EXTT7=
EXTT8=
EXTT9=
EXTT10=
EXTT11=
EXTT12=
EXTT13=
EXTT14=
EXTT15=
EXTT16=
EXTT17=
PLAYORDER=
